<?xml version="1.0" encoding="utf-8"?>
<!-- Generator: Adobe Illustrator 26.4.1, SVG Export Plug-In . SVG Version: 6.00 Build 0)  -->
<svg version="1.1" id="Layer_1" xmlns="http://www.w3.org/2000/svg" xmlns:xlink="http://www.w3.org/1999/xlink" x="0px" y="0px"
	 viewBox="0 0 400 500" style="enable-background:new 0 0 400 500;" xml:space="preserve">
<style type="text/css">
	.st0{fill:#292D58;}
	.st1{fill:#4285F0;}
	.st2{fill:url(#SVGID_1_);}
</style>
<circle class="st0" cx="24" cy="165.1" r="18.9"/>
<circle class="st1" cx="376" cy="268.6" r="18.9"/>
<g>
	<linearGradient id="SVGID_1_" gradientUnits="userSpaceOnUse" x1="10.0405" y1="250.0002" x2="389.8344" y2="250.0002">
		<stop  offset="0" style="stop-color:#292D58"/>
		<stop  offset="0.1658" style="stop-color:#2C386B"/>
		<stop  offset="0.5034" style="stop-color:#34559E"/>
		<stop  offset="0.9792" style="stop-color:#4184EE"/>
		<stop  offset="0.9975" style="stop-color:#4286F1"/>
	</linearGradient>
	<path class="st2" d="M134.5,487.4c-20.1,0-36.5-16.4-36.5-36.5V100.7c0-4.2-3.4-7.7-7.7-7.7s-7.7,3.4-7.7,7.6l0,198
		c0,20-16.3,36.3-36.4,36.3h-0.6c-9.5,0-18.5-3.7-25.2-10.4c-6.7-6.7-10.4-15.7-10.4-25.2l0-88.2c0-7.8,6.3-14.1,14.1-14.1
		c0,0,0,0,0,0c7.8,0,14.1,6.3,14.1,14.1l0,88.2c0,2,0.8,3.8,2.2,5.2c1.4,1.4,3.3,2.2,5.2,2.2h0.6c4.6,0,8.2-3.5,8.2-8l0-198
		c0-19.8,16.1-35.9,35.9-35.9s35.9,16.1,35.9,35.9v350.2c0,4.5,3.7,8.2,8.2,8.2c4.5,0,8.2-3.7,8.2-8.2V48.9
		c0-20,16.3-36.3,36.3-36.3s36.3,16.3,36.3,36.3v302.8c0,2.4,0.7,7.9,7.5,7.9h0.6c2.5,0,8.2-0.8,8.2-8.3l0-277.8
		c0-19.6,15.9-35.5,35.5-35.5h0.7c9.7,0,18.7,3.8,25.6,10.6c6.8,6.8,10.6,15.9,10.6,25.6v225.6c0,3.8,3.1,6.9,6.9,6.9
		s6.9-3.1,6.9-6.9V127.9c0-19.9,16.2-36.1,36.1-36.1s36.1,16.2,36.1,36.1v94.7c0,7.8-6.3,14.1-14.1,14.1s-14.1-6.3-14.1-14.1v-94.7
		c0-4.3-3.5-7.8-7.8-7.8c-4.3,0-7.8,3.5-7.8,7.8v171.8c0,19.4-15.8,35.2-35.2,35.2c-19.4,0-35.2-15.8-35.2-35.2V74.1
		c0-2.1-0.8-4.1-2.3-5.6c-1.5-1.5-3.5-2.3-5.6-2.3H267c-4,0-7.2,3.3-7.2,7.2l0,277.8c0,20.8-15.7,36.5-36.4,36.5h-0.6
		c-20.4,0-35.7-15.5-35.7-36.2V48.9c0-4.4-3.6-8-8-8s-8,3.6-8,8v402.1C171,471,154.6,487.4,134.5,487.4z"/>
</g>
</svg>
