<?xml version="1.0" encoding="utf-8"?>
<!-- Generator: Adobe Illustrator 26.4.1, SVG Export Plug-In . SVG Version: 6.00 Build 0)  -->
<svg version="1.1" id="Layer_1" xmlns="http://www.w3.org/2000/svg" xmlns:xlink="http://www.w3.org/1999/xlink" x="0px" y="0px"
	 viewBox="0 0 800 275" style="enable-background:new 0 0 800 275;" xml:space="preserve">
<style type="text/css">
	.st0{fill:#4285F0;}
	.st1{fill:#292D58;}
	.st2{fill:url(#SVGID_1_);}
</style>
<g>
	<g>
		<path class="st0" d="M286.6,82.7c-1.5,2.8-3.9,5.1-7.2,6.9c-3.3,1.8-7.5,2.7-12.7,2.7h-11.3v25.4h-10.3V55.1h21.6
			c4.8,0,8.9,0.8,12.2,2.5c3.3,1.7,5.8,3.9,7.5,6.7c1.6,2.8,2.5,6,2.5,9.5C288.9,76.9,288.1,79.9,286.6,82.7z M275.5,81.3
			c1.9-1.8,2.9-4.3,2.9-7.5c0-6.8-3.9-10.3-11.6-10.3h-11.3v20.4h11.3C270.7,83.9,273.6,83,275.5,81.3z"/>
		<path class="st0" d="M343.8,96.7h-37.9c0.3,4,1.8,7.1,4.4,9.5c2.6,2.4,5.9,3.6,9.7,3.6c5.5,0,9.4-2.3,11.7-6.9h11.1
			c-1.5,4.6-4.2,8.3-8.1,11.2c-3.9,2.9-8.8,4.4-14.6,4.4c-4.7,0-9-1.1-12.7-3.2c-3.8-2.1-6.7-5.1-8.8-9c-2.1-3.9-3.2-8.4-3.2-13.5
			c0-5.1,1-9.6,3.1-13.5s5-6.9,8.7-9c3.7-2.1,8.1-3.2,12.9-3.2c4.7,0,8.8,1,12.5,3.1c3.7,2,6.5,4.9,8.6,8.6c2,3.7,3.1,7.9,3.1,12.7
			C344.2,93.5,344,95.2,343.8,96.7z M333.4,88.4c-0.1-3.8-1.4-6.8-4.1-9.1c-2.6-2.3-5.9-3.4-9.8-3.4c-3.5,0-6.6,1.1-9.1,3.4
			s-4,5.3-4.5,9.1H333.4z"/>
		<path class="st0" d="M370.5,69.4c2.5-1.4,5.4-2.1,8.9-2.1v10.6h-2.6c-4,0-7.1,1-9.1,3.1c-2.1,2-3.1,5.6-3.1,10.6v26.1h-10.3V68.1
			h10.3v7.2C366,72.8,368,70.8,370.5,69.4z"/>
		<path class="st0" d="M409.6,76.4h-9.2v41.2H390V76.4h-5.8v-8.4h5.8v-3.5c0-5.7,1.5-9.9,4.5-12.5c3-2.6,7.8-3.9,14.3-3.9v8.6
			c-3.1,0-5.3,0.6-6.6,1.8s-1.9,3.2-1.9,6.1v3.5h9.2V76.4z"/>
		<path class="st0" d="M427.5,115.3c-3.8-2.1-6.8-5.1-8.9-9s-3.2-8.4-3.2-13.5c0-5,1.1-9.5,3.3-13.4c2.2-3.9,5.2-6.9,9.1-9
			c3.8-2.1,8.1-3.2,12.9-3.2c4.7,0,9,1.1,12.9,3.2c3.8,2.1,6.9,5.1,9.1,9c2.2,3.9,3.3,8.4,3.3,13.4s-1.1,9.5-3.4,13.4
			c-2.3,3.9-5.4,6.9-9.3,9c-3.9,2.1-8.3,3.2-13,3.2C435.5,118.5,431.3,117.4,427.5,115.3z M447.6,107.7c2.3-1.3,4.2-3.1,5.6-5.7
			c1.4-2.5,2.2-5.6,2.2-9.2c0-3.6-0.7-6.6-2.1-9.1c-1.4-2.5-3.2-4.4-5.5-5.6c-2.3-1.3-4.7-1.9-7.4-1.9c-2.6,0-5.1,0.6-7.3,1.9
			c-2.2,1.3-4,3.1-5.4,5.6c-1.3,2.5-2,5.5-2,9.1c0,5.3,1.4,9.5,4.1,12.4c2.7,2.9,6.2,4.4,10.3,4.4
			C442.8,109.6,445.3,108.9,447.6,107.7z"/>
		<path class="st0" d="M492.3,69.4c2.5-1.4,5.4-2.1,8.9-2.1v10.6h-2.6c-4,0-7.1,1-9.1,3.1c-2.1,2-3.1,5.6-3.1,10.6v26.1h-10.3V68.1
			h10.3v7.2C487.8,72.8,489.8,70.8,492.3,69.4z"/>
		<path class="st0" d="M581.2,69.7c3.1,1.6,5.5,4,7.3,7.2c1.8,3.2,2.7,7,2.7,11.5v29.2h-10.2V89.9c0-4.4-1.1-7.8-3.3-10.2
			c-2.2-2.4-5.3-3.6-9.1-3.6c-3.8,0-6.9,1.2-9.1,3.6s-3.4,5.8-3.4,10.2v27.7h-10.2V89.9c0-4.4-1.1-7.8-3.3-10.2
			c-2.2-2.4-5.3-3.6-9.1-3.6s-6.9,1.2-9.1,3.6s-3.4,5.8-3.4,10.2v27.7h-10.3V68.1h10.3v5.7c1.7-2,3.8-3.6,6.4-4.8
			c2.6-1.1,5.3-1.7,8.3-1.7c4,0,7.5,0.8,10.6,2.5c3.1,1.7,5.5,4.1,7.2,7.3c1.5-3,3.8-5.4,7-7.2c3.2-1.8,6.6-2.7,10.3-2.7
			C574.6,67.3,578.1,68.1,581.2,69.7z"/>
	</g>
	<g>
		<path class="st0" d="M246,156c2.8-4.9,6.7-8.7,11.6-11.4c4.9-2.7,10.2-4.1,16.1-4.1c6.7,0,12.6,1.6,17.8,4.9
			c5.2,3.3,9,7.9,11.3,13.9h-12.3c-1.6-3.3-3.9-5.8-6.8-7.4s-6.2-2.4-10-2.4c-4.1,0-7.8,0.9-11.1,2.8c-3.2,1.9-5.8,4.5-7.6,8
			c-1.8,3.5-2.7,7.5-2.7,12.1c0,4.6,0.9,8.7,2.7,12.2c1.8,3.5,4.4,6.2,7.6,8.1c3.2,1.9,6.9,2.8,11.1,2.8c3.8,0,7.1-0.8,10-2.4
			s5.1-4.1,6.8-7.4h12.3c-2.3,6-6.1,10.6-11.3,13.9c-5.2,3.2-11.1,4.9-17.8,4.9c-5.9,0-11.2-1.4-16.1-4.1
			c-4.9-2.7-8.7-6.5-11.6-11.4c-2.9-4.9-4.3-10.3-4.3-16.5S243.2,160.9,246,156z"/>
		<path class="st0" d="M323.5,201.5c-3.8-2.1-6.8-5.1-8.9-9c-2.2-3.9-3.2-8.4-3.2-13.5c0-5,1.1-9.5,3.3-13.4c2.2-3.9,5.2-6.9,9.1-9
			c3.8-2.1,8.1-3.2,12.9-3.2c4.7,0,9,1.1,12.9,3.2c3.8,2.1,6.9,5.1,9.1,9c2.2,3.9,3.3,8.4,3.3,13.4s-1.1,9.5-3.4,13.4
			c-2.3,3.9-5.4,6.9-9.3,9c-3.9,2.1-8.3,3.2-13,3.2C331.6,204.7,327.3,203.7,323.5,201.5z M343.7,193.9c2.3-1.3,4.2-3.1,5.6-5.7
			c1.4-2.5,2.2-5.6,2.2-9.2c0-3.6-0.7-6.6-2.1-9.1c-1.4-2.5-3.2-4.4-5.5-5.6c-2.3-1.3-4.7-1.9-7.4-1.9s-5.1,0.6-7.3,1.9
			c-2.2,1.3-4,3.1-5.4,5.6c-1.3,2.5-2,5.5-2,9.1c0,5.3,1.4,9.5,4.1,12.4c2.7,2.9,6.2,4.4,10.3,4.4
			C338.9,195.8,341.3,195.2,343.7,193.9z"/>
		<path class="st0" d="M407.6,156c3.1,1.6,5.5,4,7.2,7.2c1.7,3.2,2.6,7,2.6,11.5v29.2h-10.2v-27.7c0-4.4-1.1-7.8-3.3-10.2
			c-2.2-2.4-5.3-3.6-9.1-3.6s-6.9,1.2-9.1,3.6s-3.4,5.8-3.4,10.2v27.7h-10.3v-49.6h10.3v5.7c1.7-2,3.8-3.6,6.4-4.8
			c2.6-1.1,5.4-1.7,8.3-1.7C401.1,153.5,404.6,154.3,407.6,156z"/>
		<path class="st0" d="M438.1,202.6c-3.1-1.4-5.5-3.3-7.3-5.8c-1.8-2.4-2.8-5.1-2.9-8.1h10.6c0.2,2.1,1.2,3.9,3,5.3
			c1.8,1.4,4.1,2.1,6.9,2.1c2.9,0,5.1-0.6,6.7-1.7c1.6-1.1,2.4-2.5,2.4-4.3c0-1.9-0.9-3.2-2.7-4.1c-1.8-0.9-4.6-1.9-8.4-3
			c-3.7-1-6.8-2-9.1-3c-2.3-1-4.4-2.4-6.1-4.4c-1.7-2-2.6-4.6-2.6-7.8c0-2.6,0.8-5.1,2.3-7.2c1.6-2.2,3.8-3.9,6.7-5.2
			c2.9-1.3,6.3-1.9,10-1.9c5.6,0,10.2,1.4,13.6,4.3c3.4,2.9,5.3,6.7,5.5,11.7h-10.3c-0.2-2.2-1.1-4-2.7-5.3c-1.6-1.3-3.8-2-6.6-2
			c-2.7,0-4.8,0.5-6.2,1.5c-1.4,1-2.2,2.4-2.2,4.1c0,1.3,0.5,2.4,1.4,3.3c1,0.9,2.1,1.6,3.5,2.1c1.4,0.5,3.4,1.2,6.1,1.9
			c3.6,1,6.6,1.9,8.9,2.9s4.3,2.4,6,4.4c1.7,1.9,2.5,4.5,2.6,7.6c0,2.8-0.8,5.3-2.3,7.6c-1.6,2.2-3.8,4-6.6,5.2
			c-2.9,1.3-6.2,1.9-10,1.9C444.6,204.7,441.2,204,438.1,202.6z"/>
		<path class="st0" d="M478.3,165.6c2.1-3.9,4.9-6.9,8.6-9c3.7-2.1,7.9-3.2,12.6-3.2c6,0,11,1.4,14.9,4.3c3.9,2.9,6.6,6.9,8,12.2
			h-11.1c-0.9-2.5-2.3-4.4-4.3-5.8c-2-1.4-4.5-2.1-7.5-2.1c-4.2,0-7.5,1.5-10,4.5c-2.5,3-3.7,7.1-3.7,12.5c0,5.3,1.2,9.5,3.7,12.5
			c2.5,3,5.8,4.5,10,4.5c5.9,0,9.9-2.6,11.8-7.8h11.1c-1.4,5-4.1,9-8.1,12c-4,3-8.9,4.5-14.8,4.5c-4.7,0-8.9-1.1-12.6-3.2
			c-3.7-2.1-6.5-5.1-8.6-9c-2.1-3.9-3.1-8.4-3.1-13.5C475.2,174,476.2,169.5,478.3,165.6z"/>
		<path class="st0" d="M533.1,145.9c-1.3-1.3-1.9-2.8-1.9-4.7c0-1.9,0.6-3.4,1.9-4.7s2.8-1.9,4.7-1.9c1.8,0,3.3,0.6,4.6,1.9
			c1.3,1.3,1.9,2.8,1.9,4.7c0,1.9-0.6,3.4-1.9,4.7c-1.3,1.3-2.8,1.9-4.6,1.9C536,147.8,534.4,147.1,533.1,145.9z M542.9,154.3v49.6
			h-10.3v-49.6H542.9z"/>
		<path class="st0" d="M565.2,201.5c-3.8-2.1-6.8-5.1-8.9-9s-3.2-8.4-3.2-13.5c0-5,1.1-9.5,3.3-13.4c2.2-3.9,5.2-6.9,9.1-9
			c3.8-2.1,8.1-3.2,12.9-3.2c4.7,0,9,1.1,12.9,3.2c3.8,2.1,6.9,5.1,9.1,9c2.2,3.9,3.3,8.4,3.3,13.4s-1.1,9.5-3.4,13.4
			c-2.3,3.9-5.4,6.9-9.3,9c-3.9,2.1-8.3,3.2-13,3.2C573.2,204.7,569,203.7,565.2,201.5z M585.3,193.9c2.3-1.3,4.2-3.1,5.6-5.7
			c1.4-2.5,2.2-5.6,2.2-9.2c0-3.6-0.7-6.6-2.1-9.1c-1.4-2.5-3.2-4.4-5.5-5.6c-2.3-1.3-4.7-1.9-7.4-1.9c-2.6,0-5.1,0.6-7.3,1.9
			c-2.2,1.3-4,3.1-5.4,5.6c-1.3,2.5-2,5.5-2,9.1c0,5.3,1.4,9.5,4.1,12.4c2.7,2.9,6.2,4.4,10.3,4.4
			C580.5,195.8,583,195.2,585.3,193.9z"/>
		<path class="st0" d="M658.7,154.3v49.6h-10.3v-5.8c-1.6,2-3.7,3.6-6.3,4.8c-2.6,1.2-5.4,1.8-8.3,1.8c-3.9,0-7.4-0.8-10.5-2.4
			c-3.1-1.6-5.5-4-7.3-7.2c-1.8-3.2-2.7-7-2.7-11.5v-29.2h10.2V182c0,4.4,1.1,7.8,3.3,10.2c2.2,2.4,5.2,3.6,9.1,3.6s6.9-1.2,9.1-3.6
			c2.2-2.4,3.4-5.8,3.4-10.2v-27.6H658.7z"/>
		<path class="st0" d="M679.7,202.6c-3.1-1.4-5.5-3.3-7.3-5.8c-1.8-2.4-2.8-5.1-2.9-8.1h10.6c0.2,2.1,1.2,3.9,3,5.3
			c1.8,1.4,4.1,2.1,6.9,2.1c2.9,0,5.1-0.6,6.7-1.7c1.6-1.1,2.4-2.5,2.4-4.3c0-1.9-0.9-3.2-2.7-4.1c-1.8-0.9-4.6-1.9-8.4-3
			c-3.7-1-6.8-2-9.1-3c-2.3-1-4.4-2.4-6.1-4.4c-1.7-2-2.6-4.6-2.6-7.8c0-2.6,0.8-5.1,2.3-7.2c1.6-2.2,3.8-3.9,6.7-5.2
			c2.9-1.3,6.3-1.9,10-1.9c5.6,0,10.2,1.4,13.6,4.3c3.4,2.9,5.3,6.7,5.5,11.7h-10.3c-0.2-2.2-1.1-4-2.7-5.3c-1.6-1.3-3.8-2-6.6-2
			c-2.7,0-4.8,0.5-6.2,1.5c-1.4,1-2.2,2.4-2.2,4.1c0,1.3,0.5,2.4,1.4,3.3c1,0.9,2.1,1.6,3.5,2.1c1.4,0.5,3.4,1.2,6.1,1.9
			c3.6,1,6.6,1.9,8.9,2.9s4.3,2.4,6,4.4c1.7,1.9,2.5,4.5,2.6,7.6c0,2.8-0.8,5.3-2.3,7.6c-1.6,2.2-3.8,4-6.6,5.2
			c-2.9,1.3-6.2,1.9-10,1.9C686.3,204.7,682.8,204,679.7,202.6z"/>
		<path class="st0" d="M730.5,137.3v66.6h-10.3v-66.6H730.5z"/>
		<path class="st0" d="M788.7,154.3l-30.4,72.9h-10.6l10.1-24.1l-19.5-48.8h11.4l14,37.8l14.5-37.8H788.7z"/>
	</g>
	<circle class="st1" cx="20.2" cy="90.9" r="9.9"/>
	<circle class="st0" cx="204.1" cy="145" r="9.9"/>
	<g>
		<linearGradient id="SVGID_1_" gradientUnits="userSpaceOnUse" x1="12.959" y1="135.2868" x2="211.2724" y2="135.2868">
			<stop  offset="0" style="stop-color:#292D58"/>
			<stop  offset="0.1658" style="stop-color:#2C386B"/>
			<stop  offset="0.5034" style="stop-color:#34559E"/>
			<stop  offset="0.9792" style="stop-color:#4184EE"/>
			<stop  offset="0.9975" style="stop-color:#4286F1"/>
		</linearGradient>
		<path class="st2" d="M77.9,259.3c-10.5,0-19.1-8.5-19.1-19.1V57.3c0-2.2-1.8-4-4-4s-4,1.8-4,4l0,103.4c0,10.4-8.5,18.9-19,18.9
			h-0.3c-5,0-9.6-1.9-13.2-5.5C14.9,170.7,13,166,13,161l0-46c0-4.1,3.3-7.4,7.4-7.4l0,0c4.1,0,7.4,3.3,7.4,7.4l0,46
			c0,1,0.4,2,1.1,2.7c0.7,0.7,1.7,1.1,2.7,1.1h0.3c2.4,0,4.3-1.8,4.3-4.2l0-103.4c0-10.3,8.4-18.7,18.8-18.7S73.6,47,73.6,57.3
			v182.9c0,2.4,1.9,4.3,4.3,4.3s4.3-1.9,4.3-4.3V30.3c0-10.4,8.5-18.9,18.9-18.9s18.9,8.5,18.9,18.9v158.1c0,1.2,0.4,4.1,3.9,4.1
			h0.3c1.3,0,4.3-0.4,4.3-4.3l0-145.1c0-10.2,8.3-18.5,18.5-18.5h0.3c10.4,0,18.9,8.5,18.9,18.9v117.8c0,2,1.6,3.6,3.6,3.6
			c2,0,3.6-1.6,3.6-3.6V71.5c0-10.4,8.5-18.8,18.8-18.8s18.8,8.5,18.8,18.8V121c0,4.1-3.3,7.4-7.4,7.4s-7.4-3.3-7.4-7.4V71.5
			c0-2.3-1.8-4.1-4.1-4.1s-4.1,1.8-4.1,4.1v89.7c0,10.1-8.2,18.4-18.4,18.4s-18.4-8.2-18.4-18.4V43.5c0-2.3-1.9-4.1-4.1-4.1h-0.3
			c-2.1,0-3.8,1.7-3.8,3.8l0,145.1c0,10.9-8.2,19.1-19,19.1H124c-10.6,0-18.6-8.1-18.6-18.9V30.3c0-2.3-1.9-4.2-4.2-4.2
			S97,27.9,97,30.3v209.9C97,250.7,88.4,259.3,77.9,259.3z"/>
	</g>
</g>
</svg>
